<svg width="150" height="150" viewBox="0 0 150 150" fill="none" xmlns="http://www.w3.org/2000/svg">
<circle cx="75" cy="75" r="75" fill="url(#paint0_linear_1_7)"/>
<path d="M75.3333 35C56.9167 35 42 37.0833 42 51.6667V91.25C42 99.2917 48.5417 105.833 56.5833 105.833L51.7917 110.625C50.5 111.917 51.4167 114.167 53.2917 114.167H97.4167C99.2917 114.167 100.208 111.917 98.875 110.625L94.0833 105.833C102.125 105.833 108.667 99.2917 108.667 91.25V51.6667C108.667 37.0833 93.75 35 75.3333 35ZM56.5833 97.5C53.125 97.5 50.3333 94.7083 50.3333 91.25C50.3333 87.7917 53.125 85 56.5833 85C60.0417 85 62.8333 87.7917 62.8333 91.25C62.8333 94.7083 60.0417 97.5 56.5833 97.5ZM71.1667 72.5H50.3333V51.6667H71.1667V72.5ZM94.0833 97.5C90.625 97.5 87.8333 94.7083 87.8333 91.25C87.8333 87.7917 90.625 85 94.0833 85C97.5417 85 100.333 87.7917 100.333 91.25C100.333 94.7083 97.5417 97.5 94.0833 97.5ZM100.333 72.5H79.5V51.6667H100.333V72.5Z" fill="white"/>
<defs>
<linearGradient id="paint0_linear_1_7" x1="-1.40164e-07" y1="75" x2="143" y2="96.5" gradientUnits="userSpaceOnUse">
<stop stop-color="#0061FF"/>
<stop offset="1" stop-color="#60CFFF"/>
</linearGradient>
</defs>
</svg>
